HIERARCHY
ROOT Hips
{
    OFFSET 0.0 0.0 0.0
    CHANNELS 6 Xposition Yposition Zposition Zrotation Xrotation Yrotation
    JOINT LeftHipJoint
    {
        OFFSET 0.1 0.0 0.0
        CHANNELS 3 Zrotation Xrotation Yrotation
        JOINT LeftUpLeg
        {
            OFFSET 118.35451179104456 0.0 0.0
            CHANNELS 3 Zrotation Xrotation Yrotation
            JOINT LeftLeg
            {
                OFFSET 0.0 0.0 -397.3631684382716
                CHANNELS 3 Zrotation Xrotation Yrotation
                JOINT LeftFoot
                {
                    OFFSET 0.0 0.0 -400.4672583494878
                    CHANNELS 3 Zrotation Xrotation Yrotation
                    End Site
                    {
                        OFFSET 0.0 -0.1 0.0
                    }
                }
            }
        }
    }
    JOINT LowerBack
    {
        OFFSET 0.0 0.0 0.1
        CHANNELS 3 Zrotation Xrotation Yrotation
        JOINT Spine
        {
            OFFSET 0.0 0.0 218.9067885614899
            CHANNELS 3 Zrotation Xrotation Yrotation
            JOINT Spine1
            {
                OFFSET 0.0 0.0 252.88705691307214
                CHANNELS 3 Zrotation Xrotation Yrotation
                JOINT LeftShoulder
                {
                    OFFSET 0.1 0.0 0.0
                    CHANNELS 3 Zrotation Xrotation Yrotation
                    JOINT LeftArm
                    {
                        OFFSET 142.30144765302185 0.0 0.0
                        CHANNELS 3 Zrotation Xrotation Yrotation
                        JOINT LeftForeArm
                        {
                            OFFSET 260.7583509252415 0.0 0.0
                            CHANNELS 3 Zrotation Xrotation Yrotation
                            JOINT LeftHand
                            {
                                OFFSET 243.0931719527414 0.0 0.0
                                CHANNELS 3 Zrotation Xrotation Yrotation
                                End Site
                                {
                                    OFFSET 0.1 0.0 0.0
                                }
                            }
                        }
                    }
                }
                JOINT Neck
                {
                    OFFSET 0.0 0.0 0.1
                    CHANNELS 3 Zrotation Xrotation Yrotation
                    JOINT Neck1
                    {
                        OFFSET 0.0 0.0 106.53920504618632
                        CHANNELS 3 Zrotation Xrotation Yrotation
                        End Site
                        {
                            OFFSET 0.0 0.0 112.79275618041072
                        }
                    }
                }
                JOINT RightShoulder
                {
                    OFFSET -0.1 0.0 0.0
                    CHANNELS 3 Zrotation Xrotation Yrotation
                    JOINT RightArm
                    {
                        OFFSET -142.30144765302185 0.0 0.0
                        CHANNELS 3 Zrotation Xrotation Yrotation
                        JOINT RightForeArm
                        {
                            OFFSET -260.7583509252415 0.0 0.0
                            CHANNELS 3 Zrotation Xrotation Yrotation
                            JOINT RightHand
                            {
                                OFFSET -243.0931719527414 0.0 0.0
                                CHANNELS 3 Zrotation Xrotation Yrotation
                                End Site
                                {
                                    OFFSET -0.1 0.0 0.0
                                }
                            }
                        }
                    }
                }
            }
        }
    }
    JOINT RightHipJoint
    {
        OFFSET -0.1 0.0 0.0
        CHANNELS 3 Zrotation Xrotation Yrotation
        JOINT RightUpLeg
        {
            OFFSET -118.35451179104456 0.0 0.0
            CHANNELS 3 Zrotation Xrotation Yrotation
            JOINT RightLeg
            {
                OFFSET 0.0 0.0 -397.3631684382716
                CHANNELS 3 Zrotation Xrotation Yrotation
                JOINT RightFoot
                {
                    OFFSET 0.0 0.0 -400.4672583494878
                    CHANNELS 3 Zrotation Xrotation Yrotation
                    End Site
                    {
                        OFFSET 0.0 -0.1 0.0
                    }
                }
            }
        }
    }
}
MOTION
Frames: 10
Frame Time: 0.03333333333333333
0.0 0.0 790.8115982553359 21.880311960063874 5.921823932172907 3.001951514806519 0.0 0.0 3.975693351829396e-16 -0.3639596738505109 -23.201056501275076 -0.3329743658659554 0.23718976833545616 21.77188844579347 0.7254171871021332 0.0 0.0 -3.975693351829396e-16 0.0 0.0 3.975693351829396e-16 -0.022358203719626407 -1.5006494189526516 -0.7279476074150838 2.1115409523670854 2.9629501479316517e-16 -1.0486955889268296e-16 0.0 0.0 -4.969616689786745e-16 -34.29913273176799 20.2149167323155 81.43675398376756 -25.209073446524087 -7.905093523925398e-16 1.082269930704648e-14 0.0 0.0 -2.782985346280577e-15 0.0 0.0 -4.969616689786745e-16 -0.9242670394979758 4.830379278617909 -1.431670754675823 0.0 0.0 -4.969616689786745e-16 18.021973883234462 16.405712888299245 -78.20300245486679 39.201956315666884 -4.063220239542669e-15 -1.9292738137780765e-15 6.3611093629270335e-15 -6.3611093629270335e-15 3.531125038440127e-31 0.0 0.0 3.975693351829396e-16 -0.30281730330058576 -19.431675263383077 0.4195100372813596 0.5469605243668021 22.41041252925236 -2.169878039429187 0.0 0.0 1.987846675914698e-16
0.0 0.0 790.8115982553359 21.9471287074162 5.866336817917233 3.0256029198113414 0.0 0.0 1.987846675914698e-16 -0.3914600497014192 -23.095822498256183 -0.3764594584153289 0.24801173279046984 21.6681916326987 0.7125570287289777 0.0 0.0 -9.93923337957349e-17 0.0 0.0 1.987846675914698e-16 -0.025180438549439653 -1.5642384578642947 -0.7834543394740594 2.098466101900548 -9.937566863848714e-16 1.8200274768232794e-17 0.0 0.0 9.93923337957349e-17 -34.126906853699396 20.222806379633376 81.3817326599847 -25.13468895249467 3.628317698369579e-15 -8.967031026831479e-15 0.0 0.0 3.975693351829396e-16 0.0 0.0 9.93923337957349e-17 -0.9845764067823305 4.696998690985214 -1.345084010733377 0.0 0.0 9.93923337957349e-17 17.84902455869992 16.451312940906906 -78.00110028910875 39.41962406871023 1.0055307374341522e-14 -2.237731559145879e-16 0.0 0.0 -3.1805546814635168e-15 0.0 0.0 1.987846675914698e-16 -0.32561840455466357 -19.358163950582338 0.42357203731619353 0.5792598991353287 22.437319785440383 -2.1959589422644195 0.0 0.0 -1.987846675914698e-16
0.0 0.0 790.8115982553359 22.090341794749165 5.746742828424594 3.0607282041171255 0.0 0.0 -3.975693351829396e-16 -0.39790185288273106 -22.96529442286802 -0.3832833584290132 0.25601129723219673 21.825264846790613 0.6889254684602171 0.0 0.0 4.969616689786745e-16 0.0 0.0 -3.975693351829396e-16 -0.02487788716714093 -1.5110292291656218 -0.8417905344639117 2.1093429416836815 1.5918373870310529e-15 7.01041347738184e-17 0.0 0.0 1.987846675914698e-16 -33.957858465142664 20.159107534532556 81.39851652478156 -24.928165927444773 2.5824739168131755e-15 -4.315164964798954e-15 0.0 0.0 1.0933156717530838e-15 0.0 0.0 1.987846675914698e-16 -1.1814595321510821 4.597907520737753 -1.2321655826636382 0.0 0.0 1.987846675914698e-16 17.502103304285434 16.367890200601135 -77.74504394929279 39.97574131219191 3.261543106763993e-15 8.966921952305357e-15 0.0 0.0 -3.1805546814635168e-15 0.0 0.0 -3.975693351829396e-16 -0.3296198265640102 -19.1760044272085 0.39785367598125543 0.5816142026697729 22.58542120129687 -2.209386426903193 0.0 0.0 -3.975693351829396e-16
0.0 0.0 790.8115982553359 22.077972523680167 5.664541402030967 3.046263365727491 3.103527865816518e-33 -8.94531004161614e-16 3.9756933518293955e-16 -0.3928487972701282 -22.799288171533522 -0.3750692566714839 0.2565088451542637 21.79931288714926 0.7118903257898117 3.1805546814635164e-15 -8.94531004161614e-16 9.939233379573492e-17 3.103527865816518e-33 -8.94531004161614e-16 3.9756933518293955e-16 -0.024481308020716144 -1.4940751353647295 -0.8015759174005805 2.0020455081298905 -5.177227363840732e-16 -1.1838439319290777e-15 0.0 0.0 2.981770013872047e-16 -33.79082993641022 20.049860195531057 81.3283937311958 -24.737272895463494 3.0657462081949128e-15 -1.3980298417522184e-14 0.0 0.0 5.963540027744094e-16 0.0 0.0 2.981770013872047e-16 -1.2308727151135057 4.504215887731496 -1.2082679133118144 0.0 0.0 2.981770013872047e-16 17.188118448149392 16.459767607998277 -77.39113180925023 40.849240939005526 -7.607332516493992e-16 7.071133242184905e-15 0.0 0.0 2.3854160110976376e-15 3.103527865816518e-33 -8.94531004161614e-16 3.9756933518293955e-16 -0.3254336237211068 -19.036162082128456 0.4957924149798164 0.6196521569982693 22.572373602624868 -2.308752865164331 0.0 0.0 -1.987846675914698e-16
0.0 0.0 790.8115982553359 22.17428003286074 5.629010923801759 3.078779402313714 0.0 0.0 1.987846675914698e-16 -0.36801077866475224 -22.79352569851928 -0.40852716316372994 0.21790115836271978 21.830417285800227 0.7221193347622965 0.0 0.0 1.987846675914698e-16 0.0 0.0 1.987846675914698e-16 -0.02207889158835775 -1.4376904832423192 -0.7416970259020416 1.9029132420320245 -3.958640811196517e-16 1.0598038296996803e-16 3.1805546814635164e-15 -1.1034765745125397e-32 -3.9756933518293955e-16 -33.895582332357094 20.034717467940354 81.27741400419636 -24.687927881368726 -9.198393708185666e-15 -1.7478130044224758e-14 9.655420026984722e-33 1.5902773407317584e-15 -6.957463365701443e-16 3.1805546814635164e-15 -1.1034765745125397e-32 -3.9756933518293955e-16 -1.269668414202729 4.407718415279417 -1.2653396974144728 3.1805546814635164e-15 -1.1034765745125397e-32 -3.9756933518293955e-16 16.835850170597087 16.46210954817528 -77.11292266800305 41.75217447378195 4.1051462270220595e-15 1.838377169768362e-15 0.0 0.0 -1.5902773407317584e-15 0.0 0.0 1.987846675914698e-16 -0.3045731558416096 -19.006154281334304 0.43570030401340765 0.5684501596327775 22.56426018935319 -2.2145008855885067 0.0 0.0 -3.975693351829396e-16
0.0 0.0 790.8115982553359 22.214170224273577 5.620496711833382 3.148560418828222 0.0 -9.93923337957349e-17 0.0 -0.366985787843917 -22.673262300925984 -0.5094831235684171 0.17736197920789556 21.733447919100524 0.7532583101199349 0.0 0.0 1.987846675914698e-16 0.0 -9.93923337957349e-17 0.0 -0.02308015362112948 -1.498512741375692 -0.7490725600010675 1.8638425183918752 -4.888131619725252e-16 5.049787060367606e-16 1.034509288605506e-33 -3.975693351829396e-16 2.981770013872047e-16 -34.04355440497749 20.085973927252404 81.34744722245716 -24.524917768246002 -2.060633976038877e-15 1.9932333489182962e-15 1.5902773407317588e-15 1.5902773407317588e-15 -1.9878466759146984e-15 1.034509288605506e-33 -3.975693351829396e-16 2.981770013872047e-16 -1.4246053713839057 4.367663455901871 -1.3777899496722685 1.034509288605506e-33 -3.975693351829396e-16 2.981770013872047e-16 16.516344881435558 16.493602619562218 -76.714797256324 42.49254262109979 4.11693809074084e-15 1.8118159179580437e-15 1.3241718894150476e-31 6.3611093629270335e-15 -2.3854160110976376e-15 0.0 -9.93923337957349e-17 0.0 -0.3045976057495546 -18.960901354592558 0.37008912062671423 0.5393962608461479 22.459900825023027 -2.160542576543682 0.0 0.0 -1.987846675914698e-16
0.0 0.0 790.8115982553359 22.317021751282912 5.5871700240223205 3.11464404017498 0.0 0.0 0.0 -0.32769506353697736 -22.603848296987096 -0.5028531816311471 0.14124054429779187 21.857313736596648 0.8201555993227578 0.0 0.0 -3.975693351829396e-16 0.0 0.0 0.0 -0.021450577628607526 -1.5535986081249533 -0.6927755714687948 1.8285178031092157 3.9593280255656403e-16 -1.0572335671398357e-16 0.0 0.0 2.981770013872047e-16 -34.30783777912479 20.142593013736423 81.43051585925996 -24.414549678809195 -2.1016399366287765e-15 9.714497915507259e-15 1.2414111463266072e-32 1.5902773407317582e-15 -8.94531004161614e-16 0.0 0.0 2.981770013872047e-16 -1.6278013197861125 4.297351920032282 -1.3401457184651684 0.0 0.0 2.981770013872047e-16 16.041358441148514 16.521910522591977 -76.33762825615922 43.61485845781212 6.495763073256067e-15 -9.450509359778254e-15 -6.3611093629270335e-15 0.0 0.0 0.0 0.0 0.0 -0.27062444266925817 -18.794571337357787 0.4058211046080462 0.5113512765789299 22.360350774579945 -2.074720420821425 0.0 0.0 1.987846675914698e-16
0.0 0.0 790.8115982553359 22.396621849149724 5.569596184680889 3.126132960334664 0.0 0.0 -1.987846675914698e-16 -0.302995018731192 -22.56594865351702 -0.5341405098278138 0.10441079023428537 22.055558579940715 0.9013874164122616 -3.4483642953516864e-34 -9.93923337957349e-17 -3.975693351829396e-16 0.0 0.0 -1.987846675914698e-16 -0.020436849801567878 -1.5974564101750306 -0.6260642438511673 1.8090672017722675 2.887255415402053e-16 -6.009868404912379e-16 0.0 0.0 3.975693351829396e-16 -34.69424552347202 20.21504068606122 81.42459127068251 -24.441390334793667 -1.5148190125556384e-15 6.994083876620913e-15 1.5902773407317584e-15 2.758691436281349e-33 1.987846675914698e-16 0.0 0.0 3.975693351829396e-16 -1.8348525892395393 4.231091644080371 -1.4274874662454402 0.0 0.0 3.975693351829396e-16 15.796242702132277 16.397150995247912 -75.97552783011376 44.59149325798245 -1.2300523210353526e-14 1.1918852424757989e-14 0.0 0.0 2.3854160110976376e-15 0.0 0.0 -1.987846675914698e-16 -0.2494186654305263 -18.696927037848013 0.3965676227879343 0.48407120883379007 22.442179443819573 -2.0712193634931406 0.0 0.0 1.987846675914698e-16
0.0 0.0 790.8115982553359 22.385895855724698 5.4891877830862885 3.1184910605173486 0.0 0.0 -3.975693351829396e-16 -0.2774115926578469 -22.49035834260381 -0.51195983742766 0.08826665050218871 22.246984016860058 0.9341000608719768 0.0 0.0 3.975693351829396e-16 0.0 0.0 -3.975693351829396e-16 -0.01949484940803517 -1.6567984814969503 -0.5709858746484746 1.754367685443263 4.051308030957047e-16 4.908169812617566e-16 -3.1805546814635168e-15 1.9310840053969444e-32 -6.957463365701443e-16 -34.79021800050746 20.140044433051084 81.3081193136077 -24.31917642983438 -2.4650245764836702e-15 1.899015657654876e-14 0.0 0.0 1.5902773407317584e-15 -3.1805546814635168e-15 1.9310840053969444e-32 -6.957463365701443e-16 -1.987976220288219 4.190935414297701 -1.4748969787604522 -3.1805546814635168e-15 1.9310840053969444e-32 -6.957463365701443e-16 15.32720085384353 16.256537047966482 -75.5621073313324 45.446676744360516 -6.619453696886937e-15 -7.572457564923346e-15 0.0 0.0 2.385416011097637e-15 0.0 0.0 -3.975693351829396e-16 -0.22872692591308538 -18.630043126212623 0.4329756964627122 0.4787924907760172 22.674573519367677 -2.088807290372474 0.0 0.0 0.0
0.0 0.0 790.8115982553359 22.368139319890844 5.467977330164955 3.133240746913623 0.0 0.0 -1.987846675914698e-16 -0.25163054084344083 -22.55697123908694 -0.48830658179470876 0.07015053140676152 22.38817526004417 0.9028588229840102 0.0 0.0 -2.981770013872047e-16 0.0 0.0 -1.987846675914698e-16 -0.017782678889081742 -1.6703011269210561 -0.5832152732662876 1.7589198721869221 1.9418457092232066e-16 -3.0119299567126464e-16 0.0 0.0 -3.975693351829396e-16 -34.851592254468976 20.09362645571299 81.27485984190018 -24.284599096824177 -7.67903326864784e-16 -1.1551899045791922e-14 1.5902773407317584e-15 4.1380371544220234e-32 2.9817700138720468e-15 0.0 0.0 -3.975693351829396e-16 -2.0574668524224253 4.09313812649469 -1.484585028216834 0.0 0.0 -3.975693351829396e-16 15.09841225818545 16.149786405007053 -75.05776554849318 46.60443131575157 -2.067739385801551e-15 1.1279694982380438e-14 0.0 0.0 0.0 0.0 0.0 -1.987846675914698e-16 -0.20712555780508576 -18.629081974595852 0.3954409163364159 0.43488886755890716 22.678201817867205 -2.0831189501966274 5.17254644302753e-34 9.93923337957349e-17 -5.963540027744094e-16
